<svg xmlns="http://www.w3.org/2000/svg" viewBox="0 0 220 240" role="img" aria-label="ジーン（考え中）">
  <g fill="none" stroke="#1A1A18" stroke-width="2.2" stroke-linecap="round" stroke-linejoin="round">
    <path d="M 60 78 Q 54 46 80 34 Q 105 22 130 32 Q 158 40 166 68 Q 172 96 160 120 Q 154 136 150 146 Q 130 170 110 170 Q 88 170 70 152 Q 56 136 54 110 Q 52 94 60 78 Z" fill="#7A5632"/>
    <path d="M 78 88 Q 74 74 88 68 Q 102 62 118 64 Q 138 64 144 82 Q 148 98 146 114 Q 144 130 134 138 Q 122 146 108 146 Q 92 144 82 132 Q 76 120 76 104 Q 76 94 78 88 Z" fill="#F3C9A2"/>
    <ellipse cx="90" cy="118" rx="7" ry="5" fill="#E89A7A" opacity="0.5" stroke="none"/>
    <ellipse cx="134" cy="118" rx="7" ry="5" fill="#E89A7A" opacity="0.5" stroke="none"/>
    <ellipse cx="58" cy="104" rx="11" ry="14" fill="#7A5632"/>
    <ellipse cx="58" cy="104" rx="6" ry="8" fill="#F3C9A2" stroke="none"/>
    <ellipse cx="162" cy="104" rx="11" ry="14" fill="#7A5632"/>
    <ellipse cx="162" cy="104" rx="6" ry="8" fill="#F3C9A2" stroke="none"/>
    <!-- 眉（斜め、考えてる） -->
    <path d="M 86 86 L 104 92" stroke-width="2.4"/>
    <path d="M 118 92 L 136 86" stroke-width="2.4"/>
    <!-- 目（やや細い） -->
    <circle cx="96" cy="102" r="4.5" fill="#FFFFFF"/>
    <circle cx="128" cy="102" r="4.5" fill="#FFFFFF"/>
    <circle cx="96" cy="103" r="2.4" fill="#1A1A18" stroke="none"/>
    <circle cx="128" cy="103" r="2.4" fill="#1A1A18" stroke="none"/>
    <!-- 口（少し曲がって思索 -->
    <path d="M 98 132 Q 108 128 118 132" />
    <path d="M 110 116 L 110 120" stroke-width="1.6"/>
    <!-- 顎に手（考え込むポーズ） -->
    <path d="M 120 138 Q 132 142 140 154 Q 146 166 144 178" stroke-width="2.4"/>
    <ellipse cx="140" cy="152" rx="8" ry="10" fill="#F3C9A2"/>
    <!-- 服 -->
    <path d="M 54 178 L 50 220 L 80 230 L 80 192 Q 92 198 110 198 Q 128 198 140 192 L 140 230 L 170 220 L 166 178 Q 138 164 110 164 Q 82 164 54 178 Z" fill="#2A4A7F"/>
    <path d="M 110 166 L 110 198" stroke="#D4A555" stroke-width="1" stroke-dasharray="3 2"/>
    <!-- 考えの吹き出し -->
    <circle cx="180" cy="40" r="10" fill="#FFFFFF"/>
    <circle cx="196" cy="30" r="5" fill="#FFFFFF"/>
    <circle cx="204" cy="22" r="3" fill="#FFFFFF"/>
    <text x="180" y="44" font-family="Inter, sans-serif" font-size="12" font-weight="700" fill="#1A1A18" stroke="none" text-anchor="middle">?</text>
  </g>
</svg>
