<svg xmlns="http://www.w3.org/2000/svg" viewBox="0 0 1000 1000" width="1000" height="1000">
  <g transform="translate(60,40) scale(0.9)">
    <path d="M300 220 C 180 240, 140 420, 220 560 C 300 700, 520 760, 660 660 C 800 560, 810 340, 690 240 C 580 150, 420 200, 300 220 Z"
          fill="none" stroke="#000" stroke-width="18"/>
    <path d="M380 330 C 430 300, 560 300, 620 350 C 660 390, 640 430, 570 440 C 480 452, 400 420, 380 330 Z"
          fill="none" stroke="#000" stroke-width="14"/>
    <path d="M360 500 C 420 470, 540 480, 590 540 C 620 590, 560 640, 480 630 C 400 620, 350 560, 360 500 Z"
          fill="none" stroke="#000" stroke-width="14"/>
    <path d="M470 380 C 500 370, 530 385, 528 405 C 525 425, 495 432, 475 420 C 458 410, 455 388, 470 380 Z"
          fill="none" stroke="#000" stroke-width="9"/>
  </g>
</svg>
