<svg xmlns="http://www.w3.org/2000/svg" viewBox="0 0 1000 420" width="1000" height="420" role="img"><rect width="1000" height="420" fill="#5457E8"/><path d="M40 0V420M80 0V420M120 0V420M160 0V420M200 0V420M240 0V420M280 0V420M320 0V420M360 0V420M400 0V420M440 0V420M480 0V420M520 0V420M560 0V420M600 0V420M640 0V420M680 0V420M720 0V420M760 0V420M800 0V420M840 0V420M880 0V420M920 0V420M960 0V420M0 40H1000M0 80H1000M0 120H1000M0 160H1000M0 200H1000M0 240H1000M0 280H1000M0 320H1000M0 360H1000M0 400H1000" stroke="rgba(255,255,255,.08)" stroke-width="1" fill="none"/><path d="M500 210 L1060 210" stroke="rgba(255,255,255,.09)" stroke-width="2"/><path d="M500 210 L984.97 490" stroke="rgba(255,255,255,.09)" stroke-width="2"/><path d="M500 210 L780 694.97" stroke="rgba(255,255,255,.09)" stroke-width="2"/><path d="M500 210 L500 770" stroke="rgba(255,255,255,.09)" stroke-width="2"/><path d="M500 210 L220 694.97" stroke="rgba(255,255,255,.09)" stroke-width="2"/><path d="M500 210 L15.03 490" stroke="rgba(255,255,255,.09)" stroke-width="2"/><path d="M500 210 L-60 210" stroke="rgba(255,255,255,.09)" stroke-width="2"/><path d="M500 210 L15.03 -70" stroke="rgba(255,255,255,.09)" stroke-width="2"/><path d="M500 210 L220 -274.97" stroke="rgba(255,255,255,.09)" stroke-width="2"/><path d="M500 210 L500 -350" stroke="rgba(255,255,255,.09)" stroke-width="2"/><path d="M500 210 L780 -274.97" stroke="rgba(255,255,255,.09)" stroke-width="2"/><path d="M500 210 L984.97 -70" stroke="rgba(255,255,255,.09)" stroke-width="2"/><path d="M120 50 L147 101 L93 101 Z" fill="#FF6B5A" transform="rotate(16 120 80)"/><rect x="860" y="70" width="40" height="40" fill="#FFD23F" transform="rotate(20 880 90)"/><circle cx="120" cy="340" r="26" fill="none" stroke="#6FD3AE" stroke-width="7"/><rect x="875" y="325" width="30" height="30" fill="#9FE3C8" transform="rotate(10 890 340)"/><path d="M760 38 L779.8 75.4 L740.2 75.4 Z" fill="#6FD3AE" transform="rotate(-6 760 60)"/><path d="M240 340 L258 374 L222 374 Z" fill="#6EA8FF" transform="rotate(30 240 360)"/><circle cx="500" cy="210" r="138" fill="#14142B"/><circle cx="621.44" cy="210" r="4.78" fill="#6FD3AE"/><circle cx="619.37" cy="232.31" r="4.78" fill="#EDEDF7"/><circle cx="613.24" cy="253.87" r="4.78" fill="#EDEDF7"/><circle cx="603.25" cy="273.93" r="4.78" fill="#EDEDF7"/><circle cx="589.75" cy="291.81" r="4.78" fill="#EDEDF7"/><circle cx="573.18" cy="306.91" r="4.78" fill="#EDEDF7"/><circle cx="554.13" cy="318.71" r="4.78" fill="#EDEDF7"/><circle cx="533.23" cy="326.8" r="4.78" fill="#EDEDF7"/><circle cx="511.21" cy="330.92" r="4.78" fill="#EDEDF7"/><circle cx="488.79" cy="330.92" r="4.78" fill="#6FD3AE"/><circle cx="466.77" cy="326.8" r="4.78" fill="#EDEDF7"/><circle cx="445.87" cy="318.71" r="4.78" fill="#EDEDF7"/><circle cx="426.82" cy="306.91" r="4.78" fill="#EDEDF7"/><circle cx="410.25" cy="291.81" r="4.78" fill="#EDEDF7"/><circle cx="396.75" cy="273.93" r="4.78" fill="#EDEDF7"/><circle cx="386.76" cy="253.87" r="4.78" fill="#EDEDF7"/><circle cx="380.63" cy="232.31" r="4.78" fill="#EDEDF7"/><circle cx="378.56" cy="210" r="4.78" fill="#EDEDF7"/><circle cx="380.63" cy="187.69" r="4.78" fill="#6FD3AE"/><circle cx="386.76" cy="166.13" r="4.78" fill="#EDEDF7"/><circle cx="396.75" cy="146.07" r="4.78" fill="#EDEDF7"/><circle cx="410.25" cy="128.19" r="4.78" fill="#EDEDF7"/><circle cx="426.82" cy="113.09" r="4.78" fill="#EDEDF7"/><circle cx="445.87" cy="101.29" r="4.78" fill="#EDEDF7"/><circle cx="466.77" cy="93.2" r="4.78" fill="#EDEDF7"/><circle cx="488.79" cy="89.08" r="4.78" fill="#EDEDF7"/><circle cx="511.21" cy="89.08" r="4.78" fill="#EDEDF7"/><circle cx="533.23" cy="93.2" r="4.78" fill="#6FD3AE"/><circle cx="554.13" cy="101.29" r="4.78" fill="#EDEDF7"/><circle cx="573.18" cy="113.09" r="4.78" fill="#EDEDF7"/><circle cx="589.75" cy="128.19" r="4.78" fill="#EDEDF7"/><circle cx="603.25" cy="146.07" r="4.78" fill="#EDEDF7"/><circle cx="613.24" cy="166.13" r="4.78" fill="#EDEDF7"/><circle cx="619.37" cy="187.69" r="4.78" fill="#EDEDF7"/><circle cx="590.82" cy="224.66" r="4.42" fill="#6FD3AE"/><circle cx="584.68" cy="245.97" r="4.42" fill="#EDEDF7"/><circle cx="573.61" cy="265.19" r="4.42" fill="#EDEDF7"/><circle cx="558.26" cy="281.2" r="4.42" fill="#EDEDF7"/><circle cx="539.53" cy="293.07" r="4.42" fill="#EDEDF7"/><circle cx="518.5" cy="300.12" r="4.42" fill="#6FD3AE"/><circle cx="496.4" cy="301.93" r="4.42" fill="#EDEDF7"/><circle cx="474.5" cy="298.4" r="4.42" fill="#EDEDF7"/><circle cx="454.09" cy="289.73" r="4.42" fill="#EDEDF7"/><circle cx="436.34" cy="276.42" r="4.42" fill="#EDEDF7"/><circle cx="422.3" cy="259.26" r="4.42" fill="#6FD3AE"/><circle cx="412.77" cy="239.23" r="4.42" fill="#EDEDF7"/><circle cx="408.31" cy="217.5" r="4.42" fill="#EDEDF7"/><circle cx="409.18" cy="195.34" r="4.42" fill="#EDEDF7"/><circle cx="415.32" cy="174.03" r="4.42" fill="#EDEDF7"/><circle cx="426.39" cy="154.81" r="4.42" fill="#6FD3AE"/><circle cx="441.74" cy="138.8" r="4.42" fill="#EDEDF7"/><circle cx="460.47" cy="126.93" r="4.42" fill="#EDEDF7"/><circle cx="481.5" cy="119.88" r="4.42" fill="#EDEDF7"/><circle cx="503.6" cy="118.07" r="4.42" fill="#EDEDF7"/><circle cx="525.5" cy="121.6" r="4.42" fill="#6FD3AE"/><circle cx="545.91" cy="130.27" r="4.42" fill="#EDEDF7"/><circle cx="563.66" cy="143.58" r="4.42" fill="#EDEDF7"/><circle cx="577.7" cy="160.74" r="4.42" fill="#EDEDF7"/><circle cx="587.23" cy="180.77" r="4.42" fill="#EDEDF7"/><circle cx="591.69" cy="202.5" r="4.42" fill="#6FD3AE"/><circle cx="561.13" cy="230.26" r="4.6" fill="#6FD3AE"/><circle cx="550.52" cy="249.94" r="4.6" fill="#EDEDF7"/><circle cx="533.81" cy="264.81" r="4.6" fill="#EDEDF7"/><circle cx="513.02" cy="273.07" r="4.6" fill="#EDEDF7"/><circle cx="490.66" cy="273.72" r="4.6" fill="#EDEDF7"/><circle cx="469.43" cy="266.68" r="4.6" fill="#6FD3AE"/><circle cx="451.89" cy="252.81" r="4.6" fill="#EDEDF7"/><circle cx="440.15" cy="233.78" r="4.6" fill="#EDEDF7"/><circle cx="435.63" cy="211.87" r="4.6" fill="#EDEDF7"/><circle cx="438.87" cy="189.74" r="4.6" fill="#EDEDF7"/><circle cx="449.48" cy="170.06" r="4.6" fill="#6FD3AE"/><circle cx="466.19" cy="155.19" r="4.6" fill="#EDEDF7"/><circle cx="486.98" cy="146.93" r="4.6" fill="#EDEDF7"/><circle cx="509.34" cy="146.28" r="4.6" fill="#EDEDF7"/><circle cx="530.57" cy="153.32" r="4.6" fill="#EDEDF7"/><circle cx="548.11" cy="167.19" r="4.6" fill="#6FD3AE"/><circle cx="559.85" cy="186.22" r="4.6" fill="#EDEDF7"/><circle cx="564.37" cy="208.13" r="4.6" fill="#EDEDF7"/><circle cx="534.27" cy="227.84" r="4.6" fill="#6FD3AE"/><circle cx="519.19" cy="243.54" r="4.6" fill="#EDEDF7"/><circle cx="498.01" cy="248.59" r="4.6" fill="#EDEDF7"/><circle cx="477.46" cy="241.39" r="4.6" fill="#EDEDF7"/><circle cx="464.07" cy="224.22" r="4.6" fill="#EDEDF7"/><circle cx="462.09" cy="202.54" r="4.6" fill="#6FD3AE"/><circle cx="472.14" cy="183.22" r="4.6" fill="#EDEDF7"/><circle cx="491.04" cy="172.41" r="4.6" fill="#EDEDF7"/><circle cx="512.78" cy="173.54" r="4.6" fill="#EDEDF7"/><circle cx="530.47" cy="186.24" r="4.6" fill="#EDEDF7"/><circle cx="538.48" cy="206.48" r="4.6" fill="#6FD3AE"/><circle cx="500" cy="210" r="8.28" fill="#FF6B5A"/><g transform="translate(459.2,167.5) scale(1.7)"><path d="M25 25 C25 11 4 11 4 25 C4 39 25 39 25 25 C25 11 46 11 46 25 C46 39 25 39 25 25 Z" fill="none" stroke="#9FE3C8" stroke-width="3.2" stroke-linecap="round"/></g></svg>